<svg width="26" height="26" viewBox="0 0 26 26" fill="none" xmlns="http://www.w3.org/2000/svg">
<g clip-path="url(#clip0_60_116)">
<path d="M10.8927 13.7975C11.2721 14.4058 11.778 14.9254 12.3759 15.3211C12.9739 15.7167 13.6499 15.9791 14.3582 16.0905C15.0664 16.2019 15.7904 16.1596 16.4809 15.9666C17.1714 15.7736 17.8123 15.4344 18.3602 14.9719L21.6027 12.2358C22.5898 11.373 23.1986 10.157 23.2978 8.84976C23.3971 7.54249 22.979 6.24853 22.1335 5.24656C21.288 4.24459 20.0828 3.61479 18.7774 3.4928C17.4721 3.37081 16.1711 3.76639 15.1545 4.59435L13.2964 6.15309" stroke="black" stroke-width="2" stroke-linecap="round" stroke-linejoin="round"/>
<path d="M15.0472 12.1423C14.6677 11.5339 14.1618 11.0143 13.5639 10.6187C12.966 10.2231 12.2899 9.96067 11.5817 9.84928C10.8734 9.73789 10.1495 9.78013 9.45895 9.97313C8.76844 10.1661 8.12751 10.5054 7.57964 10.9679L4.33717 13.704C3.35004 14.5668 2.74128 15.7827 2.64199 17.09C2.54271 18.3973 2.96084 19.6912 3.80634 20.6932C4.65184 21.6952 5.85705 22.325 7.16239 22.447C8.46774 22.569 9.76878 22.1734 10.7853 21.3454L12.6335 19.7858" stroke="black" stroke-width="2" stroke-linecap="round" stroke-linejoin="round"/>
</g>
<defs>
<clipPath id="clip0_60_116">
<rect width="24" height="24" fill="white" transform="translate(2.02543) rotate(4.84112)"/>
</clipPath>
</defs>
</svg>
